<svg width="121" height="32" fill="none" xmlns="http://www.w3.org/2000/svg">
  <path fill-rule="evenodd" clip-rule="evenodd" d="M115.406 10.8634c.62.6296 1.114 1.3728 1.455 2.1893.367.8457.558 1.7575.562 2.6797-.003 1.8252-.721 3.5762-2 4.8745-.629.6214-1.373 1.1134-2.189 1.4485-.854.3652-1.772.5546-2.7.5571-1.827.003-3.581-.7109-4.889-1.9888-.627-.6238-1.123-1.3661-1.461-2.1839-.353-.8326-.538-1.7269-.545-2.6315-.007-.9046.164-1.8017.504-2.6397.339-.8381.841-1.6006 1.475-2.2438.635-.6432 1.389-1.15441 2.221-1.5043.847-.36357 1.757-.55302 2.678-.5571.928.00292 1.846.19235 2.7.5571.817.33172 1.561.8221 2.189 1.4429Zm-.321 6.7588c.238-.5953.357-1.2318.349-1.8731l.016.0056c.008-.6409-.111-1.2768-.35-1.8714-.238-.5947-.591-1.1363-1.038-1.5938-.448-.4576-.981-.822-1.569-1.0725-.589-.2504-1.22-.382-1.859-.3871h-.1c-.649-.0135-1.294.1043-1.896.3465-.602.2421-1.15.6037-1.609 1.063-.46.4593-.822 1.0069-1.066 1.6099-.243.6031-.363 1.2492-.352 1.8998-.013.6398.103 1.2756.339 1.8699.237.5943.59 1.1348 1.039 1.5896.447.4612.98.8287 1.57 1.0812.589.2525 1.223.3849 1.864.3896h.194c.64-.0051 1.272-.1369 1.86-.3877.589-.2508 1.122-.6157 1.57-1.0738.448-.4582.8-1.0004 1.038-1.5957ZM85.2778 9.01379c1.8115-.01488 3.5603.66466 4.8888 1.89971v.0223c.634.6289 1.1372 1.3776 1.4807 2.2029.3434.8252.5203 1.7106.5203 2.6048 0 .8942-.1769 1.7796-.5203 2.6048-.3435.8252-.8467 1.574-1.4807 2.2029-1.3289 1.2351-3.077 1.9164-4.8888 1.9053h-3.9389V9.01379h3.9389Zm.0888 1.89971h-2.0555v9.6711h2.0833c.6442.0039 1.2826-.1212 1.8779-.3681.5953-.2468 1.1354-.6103 1.5888-1.0692.439-.4477.7842-.9791 1.0151-1.5627.2309-.5837.3429-1.2078.3293-1.8355.0134-.6256-.0981-1.2476-.3281-1.8293-.2299-.5817-.5736-1.1114-1.0108-1.5579-.4565-.4647-1.0017-.8324-1.603-1.0813-.6013-.2488-1.2465-.3737-1.897-.3671ZM38.1838 9.03609h-4.3166V22.4565h1.9444v-4.8579h2.45c1.1348-.0262 2.2143-.4967 3.0076-1.3109.7932-.8142 1.2372-1.9073 1.2369-3.0456.0106-.5572-.0957-1.1105-.312-1.624-.2163-.5134-.5377-.9756-.9436-1.3564-.8212-.79777-1.9233-1.23822-3.0667-1.22561Zm1.7 6.00551c-.2103.2428-.4721.4354-.7662.5636-.2942.1282-.6132.1888-.9338.1773h-2.3722v-4.9526h2.3722c.3138-.0167.6277.0316.9221.1418s.563.28.7891.4989c.216.2351.3837.5106.4933.8108.1096.3001.1591.6191.1455.9385.0194.6675-.2127 1.3179-.65 1.8217Zm5.3501-6.00553h-1.9722V22.4565h1.9722V9.03607Zm5.9503 3.65453c1.238.0034 2.4334.4544 3.3666 1.2702.4926.4481.8882.9927 1.1625 1.6002.2742.6075.4213 1.265.432 1.9318.003.2888-.0155.5775-.0556.8635v.0501h-7.65c.0313.3162.1244.6231.2741.9032s.3529.5279.5981.7291c.5223.455 1.1975.694 1.8889.6685.4159.0104.8292-.0682 1.2123-.2305.3832-.1624.7275-.4047 1.0099-.711h2.35l-.0388.078c-.4168.824-1.0509 1.5177-1.8334 2.0056-.7924.5032-1.712.768-2.65.7632-.6482.0029-1.2906-.1228-1.8901-.3701-.5995-.2472-1.1442-.611-1.6028-1.0703-.4587-.4594-.822-1.0053-1.0693-1.6061-.2472-.6009-.3733-1.2449-.3711-1.8949-.0059-.8709.2122-1.7286.6333-2.4903.4163-.7496 1.0242-1.3746 1.7611-1.8105.7456-.4513 1.6014-.6866 2.4723-.6797Zm2.8333 4.0668c-.1666-.6022-.5185-1.1364-1.0056-1.5264-.4984-.4118-1.1264-.6329-1.7722-.624-.6596-.0167-1.3035.2025-1.8166.6184-.4705.3989-.8062.9341-.9612 1.532h5.5556Zm10.2611-3.4094c-.7525-.4382-1.6069-.6696-2.4771-.6707-.8701-.0011-1.7252.2281-2.4787.6644-.7536.4363-1.3789 1.0643-1.813 1.8206-.434.7562-.6614 1.6139-.659 2.4865-.0059.6399.1148 1.2747.3551 1.8676.2403.5928.5954 1.132 1.0449 1.5864.4488.4681.9859.8421 1.58 1.1003.5942.2582 1.2336.3955 1.8811.4038h.0944c.6478.0047 1.2855-.1604 1.85-.4791.4537-.2329.8372-.5829 1.1112-1.0139v1.3426h1.9722v-4.8077c.0063-.8699-.2171-1.7259-.6474-2.4813-.4303-.7553-1.0522-1.3831-1.8026-1.8195h-.0111Zm-.3389 2.1281c.5509.5868.8502 1.367.8333 2.1727.0103.4011-.059.8002-.204 1.1742-.1449.374-.3627.7153-.6404 1.004-.2684.2889-.5949.5172-.9579.6699-.363.1527-.7542.2263-1.1477.2159-.3965.0083-.7904-.0661-1.1567-.2186-.3663-.1525-.697-.3797-.9711-.6672-.2828-.283-.5058-.6203-.6556-.9916-.1499-.3714-.2235-.7693-.2166-1.1699-.0065-.3995.0662-.7964.2141-1.1675.1478-.3711.3678-.709.647-.994.2763-.2873.609-.5139.9772-.6655.3682-.1515.7638-.2246 1.1617-.2147.3925-.0128.7833.0564 1.1477.2031.3643.1468.6943.3678.969.6492Zm5.8441.0836c0 .7521.9278.9582 2 1.1922 1.5278.3286 3.3889.7353 3.4223 2.9191.0261.4234-.0555.8464-.2373 1.2294-.1817.383-.4576.7133-.8016.96-.8125.531-1.7701.7939-2.7389.7521-.6061.0362-1.2122-.0704-1.7698-.3113-.5576-.2409-1.0512-.6093-1.4413-1.0759-.3709-.4767-.5671-1.0667-.5556-1.6713v-.0557h1.8889v.0557c.0017.1892.0542.3743.152.5361.0978.1617.2372.2941.4036.3831.4172.2496.8979.3716 1.3833.351 1.0889 0 1.7667-.4568 1.7667-1.1977 0-.8802-.9834-1.0975-2.1223-1.3482l-.0105-.0023c-1.5474-.3392-3.2895-.7212-3.2895-2.8556-.0038-.3888.0886-.7724.269-1.1166.1803-.3441.4429-.6381.7644-.8555.7319-.518 1.6099-.7874 2.5055-.7688.9053-.0324 1.7958.2359 2.5334.7632.3236.2527.5826.579.7555.952.173.3729.2548.7818.2389 1.1928v.0557h-1.8944v-.0557c.0002-.1675-.044-.3321-.1279-.4769-.0839-.1449-.2047-.2648-.3499-.3476-.3571-.2194-.7703-.3297-1.1889-.3175-.9167 0-1.5556.468-1.5556 1.1142Zm7.5451-1.5877c-.7389.7743-1.1111 1.9387-1.1111 3.4651v5.0138H78.19v-5.0138c0-1.7771.7167-2.7186 2.0722-2.7186h.2722v-1.9164H80.29c-.5479-.0254-1.095.0656-1.6054.2673-.5103.2016-.9723.5092-1.3557.9026Zm19.5998-4.93593L91.7676 22.4565h2.0389l1.2277-3.2312h5.7278l1.233 3.2312h2.034L98.8676 9.03607h-1.9389Zm-1.2222 8.35643 2.1889-5.6378 2.1946 5.6378h-4.3835Z" fill="#fff"/>
  <path fill-rule="evenodd" clip-rule="evenodd" d="M10.7722 5.66845H9.21666c-.82217 0-1.61067-.32752-2.19203-.91049-.58136-.58297-.90797-1.37365-.90797-2.1981V1h-.46111v1.55986c0 .40823-.08018.81245-.23597 1.18961-.15579.37715-.38414.71983-.672 1.00849-.28786.28866-.6296.51764-1.00571.67386-.37611.15622-.77922.23663-1.18632.23663H1v.46238h1.55555c.82217 0 1.61067.32751 2.19203.91049.58137.58297.90797 1.37365.90797 2.1981v1.55988h.46111V9.23942c-.00073-.40844.07895-.81299.23448-1.19048.15553-.37748.38385-.72046.67186-1.00926.288-.28881.63004-.51775 1.00648-.67372.37643-.15596.77988-.23586 1.18718-.23513h1.55554v-.46238ZM27.867 15.2338h-3.1111c-1.6443 0-3.2213-.655-4.3841-1.821-1.1627-1.1659-1.8159-2.7473-1.8159-4.39616V5.89691h-.8889v3.11973c0 .8188-.1613 1.62956-.4746 2.38566-.3133.7561-.7725 1.4427-1.3511 2.0204-.5787.5777-1.2655 1.0351-2.0209 1.3459-.7554.3108-1.5646.4689-2.3812.4652H8.32812v.9192h3.11108c.8166-.0037 1.6258.1544 2.3812.4652.7554.3108 1.4422.7682 2.0209 1.3459.5786.5777 1.0378 1.2643 1.3511 2.0204.3133.7561.4746 1.5669.4746 2.3857v3.142h.8889v-3.1197c-.0029-.8184.1553-1.6292.4656-2.3861.3102-.7569.7664-1.4449 1.3425-2.0246.576-.5796 1.2604-1.0396 2.0141-1.3534.7537-.3139 1.5617-.4754 2.3778-.4754h3.1111v-.9192ZM9.96102 25.3785h.77778v.2507h-.77778c-.41108 0-.80533.1637-1.09601.4552-.29068.2915-.45399.6868-.45399 1.0991v.7799h-.22778v-.7799c.00074-.2046-.03882-.4073-.11638-.5965-.07757-.1893-.19163-.3613-.33563-.5062-.144-.1449-.31512-.2599-.50354-.3383-.18842-.0785-.39043-.1189-.59444-.1189h-.77778v-.2284h.77778c.41108 0 .80533-.1638 1.09601-.4552.29068-.2915.45398-.6869.45398-1.0991v-.7799h.22778v.7799c.00439.4093.16963.8004.45984 1.0883.2902.2879.68195.4493 1.09016.4493Z" fill="#FEBF46"/>
</svg>
